# xmcd
# 
# Track frame offsets:
#     150
#     15930
#     33280
#     48235
#     63832
#     80712
#     97310
#     116522
#     132470
#     150852
#     163305
#     186187
#     203522
#     219617
#     243567
# 
# Disc length: 3574
# 
# Revision: 3
# Processed by: cddbd v1.5.2PL0 Copyright (c) Steve Scherf et al.
# Submitted via: fre:ac v1.0.31
# 
DISCID=c70df40f
DTITLE=Pandora - En Acústico
DYEAR=2006
DGENRE=Pop
TTITLE0=Frente A Frente
TTITLE1=Matándome Suavemente (Killing Me Softly)
TTITLE2=Mi Hombre
TTITLE3=En Carne Viva
TTITLE4=Amor Amor
TTITLE5=Todavía
TTITLE6=Se Nos Rompió El Amor
TTITLE7=Ya No Es Lo Mismo Ft. Francisco Céspedes
TTITLE8=Después De Ti
TTITLE9=Ni Tú Ni Yo
TTITLE10=(Popurrí) Sólo El Y Yo - Alguien Llena Mi Lugar Ft. Reyli
TTITLE11=Una Historia Sin Miedo
TTITLE12=Sin El
TTITLE13=(Popurrí Juan Gabriel) Debo Hacerlo - Caray - Querida - Me Nace Del Corazón
TTITLE14=Cómo Te Va Mi Amor
EXTD=
EXTT0=
EXTT1=
EXTT2=
EXTT3=
EXTT4=
EXTT5=
EXTT6=
EXTT7=
EXTT8=
EXTT9=
EXTT10=
EXTT11=
EXTT12=
EXTT13=
EXTT14=
PLAYORDER=
